<?xml version="1.0" standalone="no"?>
<!DOCTYPE svg PUBLIC "-//W3C//DTD SVG 20010904//EN"
 "http://www.w3.org/TR/2001/REC-SVG-20010904/DTD/svg10.dtd">
<svg version="1.0" xmlns="http://www.w3.org/2000/svg"
 width="1024.000000pt" height="1024.000000pt" viewBox="0 0 1024.000000 1024.000000"
 preserveAspectRatio="xMidYMid meet">

<g transform="translate(0.000000,1024.000000) scale(0.100000,-0.100000)"
fill="#000000" stroke="none">
<path d="M0 5120 l0 -5120 5120 0 5120 0 0 2240 0 2240 -60 0 -60 0 0 60 c0
53 -2 60 -20 60 -18 0 -20 7 -20 60 l0 60 -160 0 c-153 0 -160 -1 -160 -20 0
-17 -7 -20 -40 -20 -33 0 -40 -3 -40 -20 0 -17 -7 -20 -40 -20 -33 0 -40 3
-40 20 0 18 -7 20 -60 20 -53 0 -60 2 -60 20 0 13 -7 20 -20 20 -17 0 -20 7
-20 40 l0 40 -60 0 -60 0 0 40 0 40 -100 0 -100 0 0 40 0 40 40 0 40 0 0 40 0
40 -140 0 c-133 0 -140 1 -140 20 0 13 -7 20 -20 20 -13 0 -20 -7 -20 -20 0
-17 -7 -20 -40 -20 -33 0 -40 3 -40 20 0 18 -7 20 -80 20 -73 0 -80 2 -80 20
0 18 -7 20 -80 20 l-80 0 0 40 0 40 -80 0 c-73 0 -80 2 -80 20 0 17 -7 20 -40
20 -33 0 -40 3 -40 20 0 19 -7 20 -100 20 l-100 0 0 40 c0 33 -3 40 -20 40
-13 0 -20 -7 -20 -20 0 -18 -7 -20 -80 -20 -73 0 -80 2 -80 20 0 19 -7 20
-200 20 l-200 0 0 40 c0 40 0 40 -40 40 -34 0 -41 4 -46 25 -7 28 -24 24 -24
-5 0 -10 -11 -41 -25 -68 -14 -28 -25 -56 -25 -64 0 -14 -19 -60 -41 -101 -5
-10 -7 -22 -4 -27 4 -6 2 -10 -3 -10 -5 0 -14 -12 -21 -26 -6 -15 -14 -24 -17
-22 -2 3 6 29 20 59 82 187 124 331 160 554 37 224 39 253 26 356 -75 621
-367 1179 -810 1553 -107 90 -132 108 -256 184 -522 320 -1110 407 -1723 256
-164 -40 -437 -156 -592 -250 -34 -20 -64 -32 -71 -28 -7 4 -10 4 -6 -1 14
-15 -13 -35 -41 -30 -17 4 -20 3 -9 -2 15 -7 1 -21 -71 -76 -48 -37 -96 -76
-106 -87 -10 -11 -22 -20 -27 -20 -6 0 7 16 26 35 20 19 41 35 47 35 5 0 7 5
4 10 -3 6 0 10 7 10 9 0 9 3 -2 10 -10 6 -11 10 -2 10 6 0 12 8 12 19 0 25 26
47 33 29 4 -8 6 -7 6 5 1 9 6 17 11 17 6 0 10 7 10 15 0 8 9 15 20 15 11 0 20
5 20 11 0 7 17 10 45 7 42 -3 44 -2 38 20 -5 20 -2 23 18 20 18 -2 23 1 21 15
-2 10 10 31 27 46 17 16 31 36 31 45 0 9 8 16 18 16 10 0 24 9 32 20 8 11 22
20 32 20 11 0 18 7 18 20 0 18 7 20 60 20 53 0 60 2 60 20 0 18 7 20 60 20
l60 0 0 80 c0 73 -2 80 -20 80 -18 0 -20 7 -20 80 0 73 2 80 20 80 18 0 20 7
20 60 l0 60 40 0 40 0 0 120 0 120 80 0 80 0 0 120 0 120 -80 0 -80 0 0 40 0
40 -40 0 -40 0 0 80 0 80 -40 0 -40 0 0 40 0 40 -40 0 -40 0 0 100 c0 93 1
100 20 100 13 0 20 7 20 20 0 17 7 20 40 20 l40 0 0 120 c0 113 1 120 20 120
18 0 20 7 20 60 0 53 -2 60 -20 60 -18 0 -20 7 -20 80 l0 80 40 0 40 0 0 40
c0 33 3 40 20 40 13 0 20 7 20 20 0 20 -7 20 -2240 20 l-2240 0 0 -5120z
m5495 2890 c173 -26 301 -59 443 -116 152 -60 222 -96 362 -184 164 -103 266
-186 367 -298 162 -178 252 -310 369 -538 70 -137 99 -211 145 -366 l8 -28
-79 0 -78 0 -35 83 c-19 45 -40 100 -47 122 -16 52 -89 197 -134 265 -20 30
-36 58 -36 63 0 14 -170 238 -224 295 -117 124 -297 258 -476 354 -399 215
-874 277 -1333 172 -502 -114 -860 -363 -1161 -808 -78 -114 -182 -323 -227
-453 l-32 -93 -77 0 -78 0 9 38 c57 250 261 612 483 855 334 366 710 563 1221
641 141 22 453 20 610 -4z m-60 -281 c287 -43 501 -123 729 -272 134 -88 193
-136 289 -234 104 -107 131 -141 212 -263 108 -165 165 -288 221 -479 18 -63
39 -118 46 -123 7 -5 80 -8 162 -6 l150 3 13 -100 c18 -137 19 -276 3 -427
l-13 -128 -153 0 c-177 0 -161 10 -194 -120 -36 -143 -90 -268 -193 -445 -320
-551 -1005 -903 -1647 -846 -450 40 -826 207 -1138 505 -233 223 -360 428
-467 753 l-50 151 -146 -6 -146 -5 -6 24 c-13 57 -18 360 -8 474 18 183 -2
164 173 167 l149 3 54 163 c89 270 218 481 419 690 133 137 271 246 398 315
212 115 479 194 753 221 61 6 312 -4 390 -15z m-1815 -189 c0 -5 -5 -10 -11
-10 -5 0 -7 5 -4 10 3 6 8 10 11 10 2 0 4 -4 4 -10z m3567 -1974 c6 -5 -50
-196 -78 -265 -37 -93 -124 -260 -185 -354 -212 -328 -562 -621 -924 -775
-330 -140 -603 -187 -957 -164 -272 18 -538 89 -777 209 -389 195 -757 548
-931 893 -49 97 -132 307 -145 365 -6 28 -13 58 -16 68 -5 16 1 18 66 15 l71
-3 34 -98 c144 -418 395 -737 790 -1004 167 -113 457 -229 690 -274 106 -21
148 -24 360 -24 223 1 249 2 366 28 234 50 514 162 674 270 251 169 526 469
648 706 56 108 127 287 148 374 l12 48 76 -6 c42 -4 77 -8 78 -9z m3 -451 c0
-8 -4 -15 -10 -15 -5 0 -7 7 -4 15 4 8 8 15 10 15 2 0 4 -7 4 -15z m-33 -67
c-2 -12 -9 -24 -16 -26 -9 -3 -9 2 0 22 15 32 20 33 16 4z m-27 -53 c0 -8 -4
-15 -10 -15 -5 0 -7 7 -4 15 4 8 8 15 10 15 2 0 4 -7 4 -15z m-58 -100 c-15
-24 -31 -45 -35 -45 -4 0 6 20 23 45 40 58 47 58 12 0z m-67 -99 c-37 -49 -43
-46 -8 3 15 22 30 38 32 36 1 -2 -9 -20 -24 -39z m-46 -63 c-38 -50 -59 -74
-59 -68 0 8 62 85 68 85 2 0 -2 -8 -9 -17z m-154 -1452 c63 -31 207 -151 181
-151 -8 0 -39 -23 -70 -51 l-56 -51 -42 37 c-56 47 -160 80 -226 70 -71 -10
-123 -37 -170 -89 -56 -61 -72 -101 -72 -178 0 -81 13 -125 53 -185 38 -57 93
-90 176 -104 53 -10 70 -8 130 10 47 14 82 33 107 56 l37 35 43 -40 c24 -22
55 -46 69 -52 14 -6 25 -15 25 -19 0 -13 -112 -110 -151 -130 -58 -29 -146
-49 -219 -49 -179 0 -338 98 -416 256 -33 66 -38 84 -42 172 -8 166 36 290
138 390 72 71 147 102 270 111 100 8 162 -2 235 -38z m-1625 -63 l0 -103 -57
2 c-32 2 -99 4 -150 5 l-92 3 3 -362 4 -362 -89 -3 -89 -3 0 285 c0 157 -3
321 -6 365 l-7 80 -138 -3 -139 -4 0 29 c0 15 -3 58 -7 95 l-6 68 379 3 c208
1 382 3 387 5 4 1 7 -44 7 -100z m866 89 c1 -1 4 -42 5 -92 l3 -90 -287 -3
-287 -2 0 -85 0 -85 254 0 253 0 7 -86 c4 -47 5 -88 3 -91 -3 -2 -120 -5 -261
-6 l-256 -2 0 -89 0 -89 290 7 290 7 0 -101 0 -100 -374 0 -373 0 -7 398 c-4
218 -8 411 -8 427 -1 17 0 44 0 60 l2 30 372 -3 c205 -2 373 -4 374 -5z m1242
-172 l-3 -185 216 0 215 0 -2 179 -2 180 92 3 c50 2 92 3 93 3 5 0 7 -211 5
-537 l-2 -378 -94 0 -93 0 5 183 5 182 -222 0 -221 0 0 -182 0 -182 -87 -3
c-49 -2 -89 -3 -89 -3 -3 0 -7 766 -5 847 l1 67 78 4 c42 1 85 4 95 5 17 2 18
-10 15 -183z m-3900 79 l4 -96 -296 4 -296 4 0 -88 0 -88 265 0 265 0 0 -90 0
-90 -265 0 -265 0 0 -91 0 -91 290 3 290 4 5 -97 5 -98 -383 0 -382 0 -4 455
-3 455 383 0 384 0 3 -96z m896 74 c3 -13 6 -47 6 -76 0 -52 -2 -56 -47 -97
-27 -23 -84 -87 -128 -141 -44 -54 -101 -121 -126 -149 -99 -109 -179 -209
-179 -224 0 -14 25 -15 242 -11 134 3 243 5 243 5 0 0 -1 -44 -3 -97 l-3 -98
-395 0 -394 0 0 75 0 75 123 142 c67 79 163 193 212 253 48 61 104 127 124
148 l35 37 -242 0 -242 0 0 90 0 90 384 0 384 0 6 -22z m3887 -7 c55 -56 26
-151 -46 -151 -28 0 -37 6 -50 30 -23 45 -19 97 10 125 32 32 50 31 86 -4z"/>
<path d="M5010 7580 c-165 -18 -302 -53 -475 -121 -411 -161 -766 -546 -912
-989 -63 -193 -77 -276 -77 -460 0 -144 4 -180 28 -284 92 -398 266 -671 590
-932 207 -166 481 -289 745 -334 377 -64 673 -16 1036 166 154 77 242 142 375
273 253 250 426 589 465 911 31 248 9 498 -58 680 -65 177 -170 366 -275 498
-295 370 -734 585 -1217 597 -82 2 -184 0 -225 -5z m-61 -402 l1 -288 -40 0
-40 0 0 274 c0 288 4 338 25 330 7 -3 19 1 26 9 12 13 15 11 20 -12 4 -14 7
-155 8 -313z m241 327 c25 1 30 -16 30 -120 l1 -100 32 -20 c46 -29 69 -79 62
-134 -6 -53 -27 -88 -61 -103 -22 -10 -24 -17 -24 -78 0 -37 -2 -69 -5 -71 -2
-3 -20 -3 -40 -1 l-35 4 0 67 c0 60 -3 70 -26 92 -73 68 -72 170 2 228 22 17
25 25 19 52 -11 48 4 202 18 191 7 -4 19 -8 27 -7z m320 -311 l0 -305 -37 3
-38 3 -3 275 c-1 151 0 285 3 297 4 16 14 23 38 26 17 2 33 5 35 5 1 1 2 -136
2 -304z m-852 20 c65 -51 83 -148 36 -204 -75 -89 -191 -76 -235 27 -23 54
-24 75 -5 112 46 87 136 116 204 65z m1188 10 c40 -19 81 -65 90 -100 17 -66
-36 -155 -104 -174 -55 -15 -104 3 -146 52 -31 36 -36 48 -36 93 0 58 21 94
74 126 38 23 77 24 122 3z m394 -470 c0 -18 -93 -145 -161 -219 -35 -39 -74
-83 -86 -99 l-23 -28 -627 1 c-608 1 -890 6 -1040 17 l-73 6 28 36 c16 21 46
62 68 92 22 30 66 89 97 130 l56 75 880 0 c631 0 881 -3 881 -11z m189 -300
c18 -20 34 -49 38 -65 l6 -29 92 0 93 0 4 -35 4 -36 -106 2 c-92 1 -110 -2
-140 -20 -43 -26 -66 -26 -107 -1 -39 24 -63 67 -63 116 0 53 53 104 108 104
33 0 45 -6 71 -36z m-2374 -85 c11 -34 -13 -76 -47 -83 -47 -9 -338 -7 -338 3
0 5 3 23 6 40 l7 32 155 -2 c137 -2 157 -1 166 14 15 23 43 21 51 -4z m1749
-176 c-15 -21 -55 -72 -89 -114 -33 -42 -84 -111 -114 -154 l-53 -78 -158 7
c-87 4 -245 4 -350 0 l-192 -7 -62 -83 c-34 -46 -67 -98 -73 -115 l-12 -32
724 7 c541 6 725 5 725 -4 0 -6 -24 -39 -54 -73 -88 -100 -196 -228 -212 -251
l-14 -21 -942 -3 c-780 -3 -940 -1 -931 10 6 7 32 42 59 78 26 36 69 90 94
120 26 30 66 82 90 115 23 33 64 83 90 110 27 28 79 95 117 150 38 55 111 157
163 228 l93 127 466 1 c382 1 638 8 660 17 2 1 -9 -15 -25 -35z m-1566 -78 c2
-2 0 -19 -3 -39 l-7 -36 -289 0 c-239 0 -289 2 -289 14 0 7 -3 28 -6 45 l-7
31 299 -6 c165 -4 300 -8 302 -9z m2452 -30 l0 -45 -287 2 -288 3 -3 37 -3 37
118 4 c65 1 196 4 291 5 l172 2 0 -45z m-2725 -191 c45 -4 50 -7 52 -31 0 -14
5 -28 10 -32 4 -3 10 -13 12 -21 2 -8 8 -31 14 -51 14 -48 2 -86 -38 -126 -38
-38 -55 -41 -100 -13 -67 41 -69 130 -3 185 l31 26 -142 -3 c-135 -3 -141 -2
-141 17 0 11 -3 30 -6 42 -6 22 -6 22 128 17 73 -3 156 -7 183 -10z m2721 0
c-3 -9 -6 -27 -6 -40 l0 -24 -181 0 c-166 0 -219 7 -219 28 1 36 54 45 329 50
72 2 82 0 77 -14z m-291 -90 c31 -20 32 -34 3 -34 -44 0 -74 -50 -46 -78 22
-22 57 -14 76 17 13 22 22 27 32 20 8 -5 57 -9 108 -9 l93 0 -3 -37 -3 -38
-91 -1 c-72 -2 -97 -6 -125 -23 -65 -40 -106 -26 -143 46 -24 47 -20 78 15
118 35 39 49 42 84 19z m-2557 -114 c2 -28 0 -30 -31 -30 -19 0 -55 -3 -81 -6
l-46 -7 0 37 0 36 78 0 78 0 2 -30z m1672 -860 l0 -271 -37 7 c-21 4 -39 8
-41 9 -2 2 0 121 4 264 l7 261 33 0 34 0 0 -270z m-852 234 c62 -40 82 -142
40 -204 -13 -19 -44 -45 -70 -58 -41 -21 -51 -23 -82 -12 -70 23 -118 112 -97
180 30 102 128 146 209 94z m1202 8 c39 -21 80 -89 80 -134 0 -69 -60 -140
-128 -154 -65 -13 -152 74 -152 151 0 75 70 155 135 155 17 0 46 -8 65 -18z
m-926 -29 c3 -21 9 -139 13 -263 l6 -226 -41 4 -42 4 0 247 c0 245 0 246 23
257 33 17 34 17 41 -23z m317 10 c77 -65 76 -191 -2 -223 l-29 -12 0 -145 0
-144 -32 3 -33 3 0 141 0 140 -36 32 c-61 53 -60 140 2 201 40 40 85 42 130 4z"/>
<path d="M5140 7180 c-15 -29 -4 -58 31 -75 23 -13 32 -13 49 -3 28 18 32 35
15 69 -13 23 -22 29 -50 29 -24 0 -37 -6 -45 -20z"/>
<path d="M4544 7152 c-52 -34 -25 -122 37 -122 28 0 69 39 69 67 0 38 -74 77
-106 55z"/>
<path d="M5750 7140 c-28 -28 -25 -66 6 -95 33 -30 44 -31 78 -4 48 38 22 119
-39 119 -14 0 -34 -9 -45 -20z"/>
<path d="M6338 6429 c-12 -7 -18 -22 -18 -48 0 -48 21 -68 54 -53 31 14 41 45
24 79 -15 31 -34 38 -60 22z"/>
<path d="M3946 5774 c-23 -22 -30 -62 -16 -79 34 -41 100 6 81 57 -5 14 -17
28 -26 32 -22 8 -21 8 -39 -10z"/>
<path d="M4543 4992 c-21 -13 -34 -61 -23 -82 12 -23 49 -50 68 -50 20 0 62
47 62 70 0 43 -71 85 -107 62z"/>
<path d="M5761 4981 c-25 -25 -27 -58 -5 -89 20 -29 59 -28 89 3 31 30 31 46
3 72 -36 33 -64 37 -87 14z"/>
<path d="M5148 4974 c-10 -21 -9 -31 2 -52 21 -36 35 -37 65 -8 30 30 31 40 5
66 -28 28 -58 25 -72 -6z"/>
<path d="M3220 6144 c-64 -54 -76 -119 -35 -189 73 -126 255 -74 255 73 0 108
-140 182 -220 116z"/>
<path d="M7004 6160 c-29 -11 -62 -55 -73 -96 -19 -70 31 -158 99 -173 121
-26 224 102 158 199 -46 68 -120 96 -184 70z"/>
<path d="M8105 3269 c-4 -6 -5 -12 -2 -15 2 -3 7 2 10 11 7 17 1 20 -8 4z"/>
<path d="M8140 3270 c0 -9 4 -20 9 -25 5 -6 11 -19 14 -30 4 -16 5 -15 6 6 0
14 -6 34 -14 45 -11 15 -14 16 -15 4z"/>
<path d="M8090 3217 c0 -13 7 -32 16 -43 15 -18 15 -18 10 6 -3 14 -6 33 -6
43 0 9 -4 17 -10 17 -5 0 -10 -10 -10 -23z"/>
<path d="M8131 3218 c1 -7 5 -24 9 -38 8 -24 8 -24 9 7 1 17 -3 35 -9 38 -5 3
-10 0 -9 -7z"/>
<path d="M4640 10220 c0 -19 7 -20 140 -20 133 0 140 1 140 20 0 19 -7 20
-140 20 -133 0 -140 -1 -140 -20z"/>
<path d="M5038 8193 c23 -2 59 -2 80 0 20 2 1 4 -43 4 -44 0 -61 -2 -37 -4z"/>
<path d="M5328 8193 c18 -2 45 -2 60 0 15 2 0 4 -33 4 -33 0 -45 -2 -27 -4z"/>
<path d="M4898 8183 c7 -3 16 -2 19 1 4 3 -2 6 -13 5 -11 0 -14 -3 -6 -6z"/>
<path d="M5458 8183 c6 -2 18 -2 25 0 6 3 1 5 -13 5 -14 0 -19 -2 -12 -5z"/>
<path d="M5648 8153 c6 -2 18 -2 25 0 6 3 1 5 -13 5 -14 0 -19 -2 -12 -5z"/>
<path d="M5804 8114 c26 -9 50 -13 53 -10 6 5 -65 26 -87 25 -8 0 7 -7 34 -15z"/>
<path d="M5870 8099 c0 -5 4 -9 9 -9 5 0 17 -3 27 -7 11 -4 15 -3 11 4 -9 14
-47 24 -47 12z"/>
<path d="M4361 8054 c0 -11 3 -14 6 -6 3 7 2 16 -1 19 -3 4 -6 -2 -5 -13z"/>
<path d="M6000 8050 c19 -11 40 -19 45 -19 6 0 -6 8 -25 19 -19 11 -39 19 -45
19 -5 0 6 -8 25 -19z"/>
<path d="M6081 8016 c2 -2 15 -9 29 -15 24 -11 24 -11 6 3 -16 13 -49 24 -35
12z"/>
<path d="M4120 7939 c0 -5 5 -7 10 -4 6 3 10 8 10 11 0 2 -4 4 -10 4 -5 0 -10
-5 -10 -11z"/>
<path d="M6220 7946 c0 -2 7 -7 16 -10 8 -3 12 -2 9 4 -6 10 -25 14 -25 6z"/>
<path d="M6330 7886 c0 -3 14 -12 30 -21 17 -9 30 -13 30 -11 0 3 -13 12 -30
21 -16 9 -30 13 -30 11z"/>
<path d="M7420 6165 c0 -8 4 -15 10 -15 5 0 7 7 4 15 -4 8 -8 15 -10 15 -2 0
-4 -7 -4 -15z"/>
<path d="M7388 5710 c-4 -14 -7 -41 -7 -60 l1 -35 9 34 c6 18 9 45 7 60 l-3
26 -7 -25z"/>
</g>
</svg>
